<svg width="1646" height="272" viewBox="0 0 1646 272" fill="none" xmlns="http://www.w3.org/2000/svg">
<g clip-path="url(#clip0_1_31)">
<path d="M377.68 15H488.2C512.92 15 532 20.76 545.44 32.28C559.12 43.8 565.96 59.88 565.96 80.52C565.96 93.24 562.24 104.52 554.8 114.36C547.6 123.96 537.28 130.56 523.84 134.16C538.96 137.28 550.96 144.36 559.84 155.4C568.96 166.44 573.52 180.6 573.52 197.88C573.52 219.24 566.08 236.16 551.2 248.64C536.56 260.88 516.52 267 491.08 267H377.68V15ZM486.76 119.04C497.56 119.04 506.32 115.8 513.04 109.32C520 102.84 523.48 94.32 523.48 83.76C523.48 72.96 520.12 64.44 513.4 58.2C506.68 51.72 497.8 48.48 486.76 48.48H420.16V119.04H486.76ZM482.08 233.52C514.72 233.52 531.04 220.08 531.04 193.2C531.04 179.76 526.84 169.68 518.44 162.96C510.28 156 498.16 152.52 482.08 152.52H420.16V233.52H482.08ZM666.288 271.32C642.288 271.32 623.688 265.56 610.488 254.04C597.288 242.52 590.688 226.2 590.688 205.08V159.72C590.688 138.6 597.288 122.28 610.488 110.76C623.688 99.24 642.288 93.48 666.288 93.48C690.528 93.48 709.248 99.24 722.448 110.76C735.648 122.28 742.248 138.6 742.248 159.72V205.08C742.248 226.2 735.648 242.52 722.448 254.04C709.248 265.56 690.528 271.32 666.288 271.32ZM666.288 240.72C678.048 240.72 687.048 237.72 693.288 231.72C699.768 225.48 703.008 216.6 703.008 205.08V159.72C703.008 148.2 699.768 139.44 693.288 133.44C687.048 127.2 678.048 124.08 666.288 124.08C654.768 124.08 645.768 127.2 639.288 133.44C633.048 139.44 629.928 148.2 629.928 159.72V205.08C629.928 216.6 633.048 225.48 639.288 231.72C645.768 237.72 654.768 240.72 666.288 240.72ZM836.022 271.32C812.022 271.32 793.422 265.56 780.222 254.04C767.022 242.52 760.422 226.2 760.422 205.08V159.72C760.422 138.6 767.022 122.28 780.222 110.76C793.422 99.24 812.022 93.48 836.022 93.48C860.262 93.48 878.982 99.24 892.182 110.76C905.382 122.28 911.982 138.6 911.982 159.72V205.08C911.982 226.2 905.382 242.52 892.182 254.04C878.982 265.56 860.262 271.32 836.022 271.32ZM836.022 240.72C847.782 240.72 856.782 237.72 863.022 231.72C869.502 225.48 872.742 216.6 872.742 205.08V159.72C872.742 148.2 869.502 139.44 863.022 133.44C856.782 127.2 847.782 124.08 836.022 124.08C824.502 124.08 815.502 127.2 809.022 133.44C802.782 139.44 799.662 148.2 799.662 159.72V205.08C799.662 216.6 802.782 225.48 809.022 231.72C815.502 237.72 824.502 240.72 836.022 240.72ZM1090.8 267H1050.48L1034.64 209.04C1032.48 201.12 1029.12 195.36 1024.56 191.76C1020.24 188.16 1013.16 185.88 1003.32 184.92L975.601 213V267H936.361V49.2C936.361 43.44 935.281 38.76 933.121 35.16C930.961 31.56 927.001 27.48 921.241 22.92L947.521 0.23998C958.081 5.51998 965.401 11.76 969.481 18.96C973.561 25.92 975.601 35.76 975.601 48.48V165.12L1041.48 97.8H1089.36L1031.4 156.48C1042.92 158.88 1051.92 164.16 1058.4 172.32C1064.88 180.48 1070.4 192.72 1074.96 209.04L1090.8 267Z" fill="#549BFF"/>
<path d="M1118.23 15H1136.95V132.72H1287.79V15H1306.51V267H1287.79V148.2H1136.95V267H1118.23V15ZM1469.86 242.52C1469.86 246.36 1470.46 249.48 1471.66 251.88C1473.1 254.28 1475.74 257.16 1479.58 260.52L1467.7 270.96C1461.94 267.6 1457.86 263.76 1455.46 259.44C1453.3 254.88 1452.22 248.76 1452.22 241.08V227.76C1446.22 241.68 1437.7 252.36 1426.66 259.8C1415.62 267.24 1402.54 270.96 1387.42 270.96C1370.38 270.96 1357.18 265.68 1347.82 255.12C1338.46 244.32 1333.78 229.44 1333.78 210.48V97.8H1351.42V209.76C1351.42 224.64 1354.9 236.16 1361.86 244.32C1369.06 252.24 1379.26 256.2 1392.46 256.2C1406.86 256.2 1419.34 250.8 1429.9 240C1440.7 229.2 1448.14 214.8 1452.22 196.8V97.8H1469.86V242.52ZM1572.1 270.96C1559.14 270.96 1547.62 268.44 1537.54 263.4C1527.7 258.12 1519.78 250.68 1513.78 241.08V267H1496.5V36.96C1496.5 33.12 1495.9 30 1494.7 27.6C1493.5 25.2 1490.98 22.44 1487.14 19.32L1498.3 8.88C1504.06 12.24 1508.02 16.08 1510.18 20.4C1512.58 24.72 1513.78 30.72 1513.78 38.4V123.72C1519.78 114.12 1527.7 106.8 1537.54 101.76C1547.62 96.48 1559.14 93.84 1572.1 93.84C1586.74 93.84 1599.58 97.32 1610.62 104.28C1621.9 111 1630.54 120.6 1636.54 133.08C1642.78 145.56 1645.9 160.08 1645.9 176.64V188.16C1645.9 204.48 1642.78 219 1636.54 231.72C1630.54 244.2 1621.9 253.92 1610.62 260.88C1599.58 267.6 1586.74 270.96 1572.1 270.96ZM1569.94 256.2C1587.46 256.2 1601.5 250.08 1612.06 237.84C1622.86 225.36 1628.26 208.8 1628.26 188.16V176.64C1628.26 156 1622.86 139.44 1612.06 126.96C1601.5 114.48 1587.46 108.24 1569.94 108.24C1554.82 108.24 1542.82 111.84 1533.94 119.04C1525.06 126 1518.34 136.08 1513.78 149.28V215.16C1518.34 228.6 1525.06 238.8 1533.94 245.76C1542.82 252.72 1554.82 256.2 1569.94 256.2Z" fill="#112D55"/>
<rect x="45.5" y="17.5" width="68" height="186" rx="19.5" stroke="#112D55" stroke-width="25"/>
<rect x="184.473" y="33.55" width="68" height="180.581" rx="19.5" transform="rotate(-15.0818 184.473 33.55)" stroke="#549BFF" stroke-width="25"/>
<rect x="12.5" y="203.5" width="303" height="51" rx="25.5" stroke="#112D55" stroke-width="25"/>
<rect x="113.5" y="17.5" width="68" height="186" rx="19.5" stroke="#112D55" stroke-width="25"/>
</g>
<defs>
<clipPath id="clip0_1_31">
<rect width="1646" height="272" fill="white"/>
</clipPath>
</defs>
</svg>
